<svg width="50" height="50" viewBox="0 0 50 50" fill="none" xmlns="http://www.w3.org/2000/svg">
<g clip-path="url(#clip0_8182_1750)">
<path d="M39.2916 20.9167V25.0001C39.2916 28.7905 37.7859 32.4256 35.1057 35.1058C32.4255 37.786 28.7904 39.2917 25 39.2917M25 39.2917C21.2096 39.2917 17.5745 37.786 14.8942 35.1058C12.214 32.4256 10.7083 28.7905 10.7083 25.0001V20.9167M25 39.2917V47.4584M16.8333 47.4584H33.1666M25 2.54175C23.3755 2.54175 21.8176 3.18706 20.669 4.33572C19.5203 5.48438 18.875 7.0423 18.875 8.66675V25.0001C18.875 26.6245 19.5203 28.1825 20.669 29.3311C21.8176 30.4798 23.3755 31.1251 25 31.1251C26.6244 31.1251 28.1823 30.4798 29.331 29.3311C30.4797 28.1825 31.125 26.6245 31.125 25.0001V8.66675C31.125 7.0423 30.4797 5.48438 29.331 4.33572C28.1823 3.18706 26.6244 2.54175 25 2.54175Z" stroke="#1849A9" stroke-width="5.33333" stroke-linecap="round" stroke-linejoin="round"/>
</g>
<defs>
<clipPath id="clip0_8182_1750">
<rect width="49" height="49" fill="white" transform="translate(0.5 0.5)"/>
</clipPath>
</defs>
</svg>
